# xmcd
#
# Track frame offsets:
#	150
#	18360
#	37327
#	52042
#	66262
#	84652
#	106965
#	128154
#	147155
#	166347
#	184002
#	204585
#	220459
#	238007
#	257862
#
# Disc length: 3719 seconds
#
# Revision: 10
# Processed by: cddbd v1.5.2PL0 Copyright (c) Steve Scherf et al.
# Submitted via: EasyCDDAExtractor 15.3.0.1
#
DISCID=e30e850f
DTITLE=Whitney Houston - The Preacher's Wife
DYEAR=1996
DGENRE=Gospel
TTITLE0=I Believe In You And Me
TTITLE1=Step By Step
TTITLE2=Joy
TTITLE3=Hold On, Help Is On The Way
TTITLE4=I Go To The Rock
TTITLE5=I Love The Lord
TTITLE6=Somebody Bigger Than You And I
TTITLE7=You Were Loved
TTITLE8=My Heart Is Calling
TTITLE9=I Believe In You And Me (Single Version)
TTITLE10=Step By Step (Remix)
TTITLE11=Who Would Imagine A King
TTITLE12=He's All Over Me
TTITLE13=The Lord Is My Shepherd
TTITLE14=Joy To The World
EXTD=
EXTT0=
EXTT1=
EXTT2=
EXTT3=
EXTT4=
EXTT5=
EXTT6=
EXTT7=
EXTT8=
EXTT9=
EXTT10=
EXTT11=
EXTT12=
EXTT13=
EXTT14=
PLAYORDER=
